<?xml version="1.0" encoding="utf-8"?>
<!-- Generator: Adobe Illustrator 22.0.1, SVG Export Plug-In . SVG Version: 6.00 Build 0)  -->
<svg version="1.1" id="Calque_1" xmlns="http://www.w3.org/2000/svg" xmlns:xlink="http://www.w3.org/1999/xlink" x="0px" y="0px"
	 viewBox="0 0 600 600" style="enable-background:new 0 0 600 600;" xml:space="preserve">
<style type="text/css">
	.st0{opacity:0.35;fill:#848484;}
	.st1{fill:#1E1E1C;}
	.st2{clip-path:url(#XMLID_2_);}
	.st3{clip-path:url(#XMLID_3_);fill:url(#XMLID_4_);}
	.st4{clip-path:url(#XMLID_3_);fill:url(#XMLID_5_);}
	.st5{clip-path:url(#XMLID_3_);fill:url(#XMLID_6_);}
	.st6{fill:none;}
	.st7{clip-path:url(#XMLID_7_);fill:url(#XMLID_8_);}
	.st8{clip-path:url(#XMLID_7_);fill:url(#XMLID_9_);}
	.st9{clip-path:url(#XMLID_10_);fill:url(#XMLID_11_);}
	.st10{clip-path:url(#XMLID_10_);fill:url(#XMLID_12_);}
</style>
<g>
	<g id="XMLID_128_">
		<polygon id="XMLID_133_" class="st0" points="465.2,230 461.2,230 412.6,230 400.1,230 382.4,230 359.2,298.7 354,230.5 
			335.9,230.5 310.1,298.7 308.6,230 280.5,230 289.8,340.5 315.7,340.5 338.4,280.8 342.8,340.5 368.4,340.5 391.9,281.8 
			382.5,340.5 448.7,340.5 452.6,315.9 413.6,315.9 416.6,296.8 451,296.8 454.8,273.1 420.4,273.1 423.4,254.3 457.1,254.3 
			457.1,254.3 482.3,254.3 468.9,340.5 496.1,340.5 509.6,254.3 534.9,254.3 538.8,230 		"/>
		<path id="XMLID_129_" class="st1" d="M275.8,230l-23.4,41.5L242,230H214l1.6,5.1c-5.8-3.4-12.9-5.1-20.5-5.1h-39.5l-4.2,26.2
			c-4.9-15.8-17.1-26.2-37.3-26.2H78.7L61.2,340.5h35.5c22.5,0,36.3-8.3,44.9-21.3l-3.4,21.3h27.1l5.7-36h9.6h1.3l12,36h27.8
			l-14-40.4c10.3-4.5,17.3-13.2,20.7-25.6l7.8,24.1l-6.8,41.8h27.3l6.6-41.8l43.9-68.7H275.8z M125.6,285.1
			c-3.5,22.1-12.6,29.5-24.6,29.5h-8.5l9.3-58.7h9.5C124,255.9,129,264.6,125.6,285.1z M202.1,267.7c-1.4,8.7-8,12.5-15.8,12.5
			h-11.4l3.9-24.9h12.6C199.2,255.3,203.2,260.5,202.1,267.7z"/>
	</g>
	<g id="XMLID_109_">
		<path id="XMLID_125_" class="st1" d="M61.2,355.1h5.4c2.8,0,5.2,1.6,5.2,4.9c0,2.1-0.8,3.5-2.3,4.3l2.7,5.4h-3.9l-2.3-4.8h-1.2
			v4.8h-3.6V355.1z M66.5,361.7c1,0,1.7-0.6,1.7-1.6c0-1.1-0.7-1.6-1.7-1.6h-1.7v3.3H66.5z"/>
		<path id="XMLID_123_" class="st1" d="M132.7,355.1h8.6v3.2h-5v2.5h4.5v3.1h-4.5v2.5h5.1v3.3h-8.7V355.1z"/>
		<path id="XMLID_121_" class="st1" d="M201.7,362.5c0-5,2.9-7.7,6.6-7.7c1,0,1.9,0.2,2.8,0.6v3.5c-0.6-0.3-1.3-0.5-2.3-0.5
			c-2,0-3.4,1.4-3.4,4.1c0,2.6,1.3,3.9,3.3,3.9c0.8,0,1.7-0.2,2.5-0.5v3.6c-0.9,0.3-1.8,0.5-2.9,0.5
			C204.8,370,201.7,367.6,201.7,362.5z"/>
		<path id="XMLID_118_" class="st1" d="M271.4,362.4c0-4.5,1.8-7.6,5.9-7.6s5.9,3.1,5.9,7.6c0,4.5-1.8,7.6-5.9,7.6
			S271.4,366.9,271.4,362.4z M279.5,362.4c0-2.7-0.7-4-2.2-4c-1.5,0-2.2,1.3-2.2,4c0,2.7,0.7,4,2.2,4
			C278.8,366.4,279.5,365.1,279.5,362.4z"/>
		<path id="XMLID_115_" class="st1" d="M344.1,355.1h5.4c2.8,0,5.2,1.6,5.2,4.9c0,2.1-0.8,3.5-2.3,4.3l2.7,5.4h-3.9l-2.3-4.8h-1.2
			v4.8h-3.6V355.1z M349.4,361.7c1,0,1.7-0.6,1.7-1.6c0-1.1-0.7-1.6-1.7-1.6h-1.7v3.3H349.4z"/>
		<path id="XMLID_112_" class="st1" d="M426.7,362.4c0,4.1-1.7,7.3-6.2,7.3h-4.8v-14.6h4.8C425,355.1,426.7,358.3,426.7,362.4z
			 M419.3,358.5v7.8h1.2c1.8,0,2.6-1.1,2.6-3.9c0-2.8-0.9-3.9-2.6-3.9H419.3z"/>
		<path id="XMLID_110_" class="st1" d="M487.4,369v-3.7c1.1,0.7,2.7,1.2,4.1,1.2c1.1,0,1.9-0.4,1.9-1.1c0-2-6.4-1.2-6.4-6.2
			c0-3.2,2.4-4.5,5.1-4.5c1.7,0,2.8,0.4,4.1,1v3.5c-1.2-0.7-2.4-1.2-3.8-1.2c-1.1,0-1.7,0.4-1.7,1.1c0,1.9,6.5,1.3,6.5,6.3
			c0,3.3-2.6,4.5-5.2,4.5C490.2,370,488.9,369.7,487.4,369z"/>
	</g>
	<g id="XMLID_90_">
		<defs>
			<polygon id="XMLID_91_" points="465.2,230 461.2,230 412.6,230 400.1,230 382.4,230 359.2,298.7 354,230.5 335.9,230.5 
				310.1,298.7 308.6,230 280.5,230 289.8,340.5 315.7,340.5 338.4,280.8 342.8,340.5 368.4,340.5 391.9,281.8 382.5,340.5 
				448.7,340.5 452.6,315.9 413.6,315.9 416.6,296.8 451,296.8 454.8,273.1 420.4,273.1 423.4,254.3 457.1,254.3 457.1,254.3 
				482.3,254.3 468.9,340.5 496.1,340.5 509.6,254.3 534.9,254.3 538.8,230 			"/>
		</defs>
		<clipPath id="XMLID_2_">
			<use xlink:href="#XMLID_91_"  style="overflow:visible;"/>
		</clipPath>
		<g id="XMLID_92_" class="st2">
			<g id="XMLID_104_">
				<defs>
					<path id="XMLID_105_" d="M538.3,255.9c-4.3-3.1-11.2-7-19.6-6.8c-21.9,0.6-29,28.8-45.3,28.3c-18.2-0.5-20.3-36-43-40.4
						c-17.9-3.5-23.4,17.3-48.3,18.9c-26.1,1.6-35.3-20.2-61.5-19.3c-17.5,0.6-31.4,11-40,19.3v71h257.8V255.9z"/>
				</defs>
				<clipPath id="XMLID_3_">
					<use xlink:href="#XMLID_105_"  style="overflow:visible;"/>
				</clipPath>
				
					<radialGradient id="XMLID_4_" cx="428.2482" cy="549.7086" r="113.9449" gradientTransform="matrix(1 0 0 0.79 0 -197.6842)" gradientUnits="userSpaceOnUse">
					<stop  offset="1.435684e-02" style="stop-color:#1E1E1C"/>
					<stop  offset="0.5325" style="stop-color:#1F1F1F;stop-opacity:0.2078"/>
					<stop  offset="0.6684" style="stop-color:#202020;stop-opacity:0"/>
				</radialGradient>
				<ellipse id="XMLID_108_" class="st3" cx="428.2" cy="236.6" rx="113.9" ry="90"/>
				
					<radialGradient id="XMLID_5_" cx="517.1798" cy="562.9136" r="113.9449" gradientTransform="matrix(1 0 0 0.79 0 -197.6842)" gradientUnits="userSpaceOnUse">
					<stop  offset="1.435684e-02" style="stop-color:#1E1E1C"/>
					<stop  offset="0.5325" style="stop-color:#1F1F1F;stop-opacity:0.2078"/>
					<stop  offset="0.6684" style="stop-color:#202020;stop-opacity:0"/>
				</radialGradient>
				<ellipse id="XMLID_107_" class="st4" cx="517.2" cy="247" rx="113.9" ry="90"/>
				
					<radialGradient id="XMLID_6_" cx="320.4066" cy="541.4067" r="113.9449" gradientTransform="matrix(1 0 0 0.79 0 -197.6842)" gradientUnits="userSpaceOnUse">
					<stop  offset="1.435684e-02" style="stop-color:#1E1E1C"/>
					<stop  offset="0.5325" style="stop-color:#1F1F1F;stop-opacity:0.2078"/>
					<stop  offset="0.6684" style="stop-color:#202020;stop-opacity:0"/>
				</radialGradient>
				<ellipse id="XMLID_106_" class="st5" cx="320.4" cy="230" rx="113.9" ry="90"/>
			</g>
			<path id="XMLID_103_" class="st6" d="M538.6,255.9c-4.3-3.1-11.2-7-19.6-6.8c-21.9,0.6-29,28.8-45.3,28.3
				c-18.2-0.5-20.3-36-43-40.4c-18.6-3.6-24.2,17.4-48.3,18.9c-26.1,1.6-35.3-20.2-61.5-19.3c-17.5,0.6-31.4,11-40,19.3"/>
			<g id="XMLID_99_">
				<defs>
					<path id="XMLID_100_" d="M538.3,298c-4.3-3.1-19.3,8.9-27.7,9.2c-21.9,0.6-20.3-40.7-36.6-41.1c-18.2-0.5-18,56.1-40.8,51.7
						c-17.9-3.5-26.2-21.3-51.1-19.7c-26.1,1.6-35.3-20.2-61.5-19.3c-17.5,0.6-31.4,11-40,19.3l0.2,40.7l257.8,1.5L538.3,298z"/>
				</defs>
				<clipPath id="XMLID_7_">
					<use xlink:href="#XMLID_100_"  style="overflow:visible;"/>
				</clipPath>
				
					<radialGradient id="XMLID_8_" cx="321.9945" cy="600.9026" r="113.9449" gradientTransform="matrix(1 0 0 0.79 0 -197.6842)" gradientUnits="userSpaceOnUse">
					<stop  offset="1.435684e-02" style="stop-color:#1E1E1C"/>
					<stop  offset="0.5325" style="stop-color:#1F1F1F;stop-opacity:0.2078"/>
					<stop  offset="0.6684" style="stop-color:#202020;stop-opacity:0"/>
				</radialGradient>
				<ellipse id="XMLID_102_" class="st7" cx="322" cy="277" rx="113.9" ry="90"/>
				
					<radialGradient id="XMLID_9_" cx="474.1314" cy="596.2782" r="113.9449" gradientTransform="matrix(1 0 0 0.79 0 -197.6842)" gradientUnits="userSpaceOnUse">
					<stop  offset="1.435684e-02" style="stop-color:#1E1E1C"/>
					<stop  offset="0.5325" style="stop-color:#1F1F1F;stop-opacity:0.2078"/>
					<stop  offset="0.6684" style="stop-color:#202020;stop-opacity:0"/>
				</radialGradient>
				<ellipse id="XMLID_101_" class="st8" cx="474.1" cy="273.4" rx="113.9" ry="90"/>
			</g>
			<path id="XMLID_98_" class="st6" d="M538.3,298c-4.3-3.1-19.3,8.9-27.7,9.2c-21.9,0.6-20.3-40.7-36.6-41.1
				c-18.2-0.5-18,56.1-40.8,51.7c-18.6-3.6-27-21.3-51.1-19.7c-26.1,1.6-35.3-20.2-61.5-19.3c-17.5,0.6-31.4,11-40,19.3"/>
			<g id="XMLID_94_">
				<defs>
					<path id="XMLID_95_" d="M538.1,339.1c-10.6,0.2-26.4-0.9-43.3-8.3c-17.4-7.7-16.6-12.9-30.7-18.4c-27.6-10.7-59.3,0.4-69.5,4.5
						c-25,10.1-28.9,21.2-44.5,19.4c-14.8-1.7-18.8-12.6-33.5-13.8c-14.8-1.3-27.7,8.2-36,16.1l0.2,41.5h258L538.1,339.1z"/>
				</defs>
				<clipPath id="XMLID_10_">
					<use xlink:href="#XMLID_95_"  style="overflow:visible;"/>
				</clipPath>
				
					<radialGradient id="XMLID_11_" cx="311.9746" cy="641.8684" r="113.9449" gradientTransform="matrix(1 0 0 0.79 0 -197.6842)" gradientUnits="userSpaceOnUse">
					<stop  offset="1.435684e-02" style="stop-color:#1E1E1C"/>
					<stop  offset="0.5325" style="stop-color:#1F1F1F;stop-opacity:0.2078"/>
					<stop  offset="0.6684" style="stop-color:#202020;stop-opacity:0"/>
				</radialGradient>
				<ellipse id="XMLID_97_" class="st9" cx="312" cy="309.4" rx="113.9" ry="90"/>
				
					<radialGradient id="XMLID_12_" cx="436.1563" cy="638.8119" r="113.9449" gradientTransform="matrix(1 0 0 0.79 0 -197.6842)" gradientUnits="userSpaceOnUse">
					<stop  offset="1.435684e-02" style="stop-color:#1E1E1C"/>
					<stop  offset="0.5325" style="stop-color:#1F1F1F;stop-opacity:0.2078"/>
					<stop  offset="0.6684" style="stop-color:#202020;stop-opacity:0"/>
				</radialGradient>
				<ellipse id="XMLID_96_" class="st10" cx="436.2" cy="307" rx="113.9" ry="90"/>
			</g>
			<path id="XMLID_93_" class="st6" d="M538.1,339.1c-10.6,0.2-26.4-0.9-43.3-8.3c-17.4-7.7-16.6-12.9-30.7-18.4
				c-27.6-10.7-59.3,0.4-69.5,4.5c-25,10.1-28.9,21.2-44.5,19.4c-14.8-1.7-18.8-12.6-33.5-13.8c-14.8-1.3-27.7,8.2-36,16.1"/>
		</g>
	</g>
</g>
</svg>
